<?xml version="1.0" encoding="UTF-8" standalone="no"?>
<svg
   width="100"
   height="100"
   viewBox="0 0 100 100"
   version="1.1"
   id="svg315"
   sodipodi:docname="github_icon.svg"
   inkscape:version="1.2.1 (9c6d41e410, 2022-07-14)"
   xmlns:inkscape="http://www.inkscape.org/namespaces/inkscape"
   xmlns:sodipodi="http://sodipodi.sourceforge.net/DTD/sodipodi-0.dtd"
   xmlns="http://www.w3.org/2000/svg"
   xmlns:svg="http://www.w3.org/2000/svg">
  <defs
     id="defs319" />
  <sodipodi:namedview
     id="namedview317"
     pagecolor="#ffffff"
     bordercolor="#000000"
     borderopacity="0.25"
     inkscape:showpageshadow="2"
     inkscape:pageopacity="0.0"
     inkscape:pagecheckerboard="0"
     inkscape:deskcolor="#d1d1d1"
     showgrid="false"
     inkscape:zoom="6.696"
     inkscape:cx="50.029869"
     inkscape:cy="50.029869"
     inkscape:window-width="1920"
     inkscape:window-height="1017"
     inkscape:window-x="-8"
     inkscape:window-y="-8"
     inkscape:window-maximized="1"
     inkscape:current-layer="svg315" />
  <path
     d="M 50.116829,0 C 22.592305,0 0.29868578,22.863862 0.29868578,51.092429 c 0,22.6084 14.26044222,41.704196 34.06315522,48.473943 2.490906,0.447058 3.424998,-1.085714 3.424998,-2.426891 0,-1.213445 -0.06227,-5.236974 -0.06227,-9.515965 -12.516809,2.363025 -15.754988,-3.129411 -16.751352,-6.00336 -0.560453,-1.468907 -2.989087,-6.00336 -5.106358,-7.216806 -1.743635,-0.957983 -4.234542,-3.321008 -0.06227,-3.384873 3.923179,-0.06387 6.725449,3.704201 7.659539,5.236974 4.483632,7.72773 11.64499,5.556302 14.509535,4.215125 0.435907,-3.321008 1.743635,-5.556301 3.175906,-6.833612 -11.084544,-1.277311 -22.667261,-5.684033 -22.667261,-25.226887 0,-5.556302 1.930453,-10.15462 5.10636,-13.731091 -0.498183,-1.27731 -2.241818,-6.514284 0.498181,-13.539493 0,0 4.17227,-1.341177 13.69999,5.236974 3.985451,-1.14958 8.219993,-1.72437 12.454535,-1.72437 4.234542,0 8.469085,0.57479 12.454536,1.72437 9.52772,-6.642016 13.699989,-5.236974 13.699989,-5.236974 2.739998,7.025209 0.996363,12.262183 0.498182,13.539493 3.175906,3.576471 5.106359,8.110924 5.106359,13.731091 0,19.60672 -11.644991,23.949576 -22.729527,25.226887 1.805906,1.596638 3.362724,4.662184 3.362724,9.452099 0,6.833613 -0.06227,12.326049 -0.06227,14.050418 0,1.341177 0.93409,2.937819 3.424997,2.426891 A 49.899098,51.175455 0 0 0 99.934972,51.092429 C 99.934972,22.863862 77.641353,0 50.116829,0 Z"
     id="path313"
     style="stroke-width:6.30641" />
</svg>
