<?xml version="1.0" encoding="UTF-8" standalone="no"?>
<!-- Generator: Adobe Illustrator 19.0.0, SVG Export Plug-In . SVG Version: 6.00 Build 0)  -->

<svg
   version="1.1"
   id="Layer_1"
   x="0px"
   y="0px"
   viewBox="0 0 100 100"
   xml:space="preserve"
   sodipodi:docname="linkedin_icon.svg"
   width="100"
   height="100"
   inkscape:version="1.2.1 (9c6d41e410, 2022-07-14)"
   xmlns:inkscape="http://www.inkscape.org/namespaces/inkscape"
   xmlns:sodipodi="http://sodipodi.sourceforge.net/DTD/sodipodi-0.dtd"
   xmlns="http://www.w3.org/2000/svg"
   xmlns:svg="http://www.w3.org/2000/svg"><defs
   id="defs118" /><sodipodi:namedview
   id="namedview116"
   pagecolor="#ffffff"
   bordercolor="#000000"
   borderopacity="0.25"
   inkscape:showpageshadow="2"
   inkscape:pageopacity="0.0"
   inkscape:pagecheckerboard="0"
   inkscape:deskcolor="#d1d1d1"
   showgrid="false"
   inkscape:zoom="5.3812757"
   inkscape:cx="101.46293"
   inkscape:cy="59.093794"
   inkscape:window-width="1920"
   inkscape:window-height="1017"
   inkscape:window-x="-8"
   inkscape:window-y="-8"
   inkscape:window-maximized="1"
   inkscape:current-layer="Layer_1" />
<path
   style="fill:#0074b5;stroke-width:0.196144"
   d="m 99.087136,74.591429 c 0,13.514005 -11.046732,24.592344 -24.522177,24.592344 H 25.677294 c -13.475446,0 -24.5221788,-11.078339 -24.5221788,-24.592344 V 25.563874 c 0,-13.514005 11.0467328,-24.59234647 24.5221788,-24.59234647 h 48.887665 c 13.475445,0 24.522177,11.07834147 24.522177,24.59234647 z"
   id="path65" />
  <g
   id="g73"
   transform="matrix(0.19586403,0,0,0.1964245,0.37165908,0.18582955)">
	<rect
   x="99.199997"
   y="202.39999"
   style="fill:#ffffff"
   width="71.599998"
   height="206.39999"
   id="rect67" />
    <path
   style="fill:#ffffff"
   d="m 134.4,170.8 c 20,0 36.4,-16.4 36.4,-36.4 0,-20 -16.4,-36.4 -36.4,-36.4 -20,0 -36.4,16.4 -36.4,36.4 0,20 16.4,36.4 36.4,36.4"
   id="path69" />
    <path
   style="fill:#ffffff"
   d="m 408.8,295.6 c 0,-56 -11.6,-93.6 -76.8,-93.6 -31.6,0 -52,12.4 -60.4,28 H 270 V 202.4 H 214.4 V 408.8 H 274 v -102 c 0,-27.2 5.6,-53.6 39.2,-53.6 33.2,0 36.4,31.2 36.4,55.2 v 100 h 59.6 V 295.6 Z"
   id="path71" />
</g>
  <path
   d="M 74.564959,99.969475 H 25.677294 c -13.94552,0 -25.30563492,-11.392622 -25.30563492,-25.378046 V 25.563874 C 0.37165908,11.57845 11.731774,0.18582955 25.677294,0.18582955 h 48.887665 c 13.945519,0 25.305635,11.39262045 25.305635,25.37804445 v 49.027555 c 0,13.985424 -11.360116,25.378046 -25.305635,25.378046 z M 25.677294,1.7572255 c -13.083719,0 -23.7387226,10.6854925 -23.7387226,23.8066485 v 49.027555 c 0,13.121157 10.6550036,23.806642 23.7387226,23.806642 h 48.887665 c 13.083717,0 23.738721,-10.685485 23.738721,-23.806642 V 25.563874 c 0,-13.121156 -10.655004,-23.8066485 -23.738721,-23.8066485 z"
   id="path75"
   style="stroke-width:0.196144" />
  
  <path
   d="m 87.883713,12.992707 c -0.235037,0 -0.391728,-0.07857 -0.548418,-0.235709 -3.995627,-4.0070604 -9.323129,-6.2855846 -14.728977,-6.2855846 -0.470073,0 -0.783457,-0.3142792 -0.783457,-0.785698 0,-0.4714188 0.313384,-0.785698 0.783457,-0.785698 5.797575,0 11.516806,2.4356639 15.825815,6.7570026 0.313382,0.314279 0.313382,0.785698 0,1.099978 -0.07834,0.157139 -0.313384,0.235709 -0.54842,0.235709 z"
   id="path79"
   style="stroke-width:0.196144" />
  <path
   d="m 94.3864,46.149162 c -0.470074,0 -0.783457,-0.31428 -0.783457,-0.785697 V 33.735133 c 0,-0.471418 0.313383,-0.785698 0.783457,-0.785698 0.470074,0 0.783455,0.31428 0.783455,0.785698 v 11.628332 c 0,0.471417 -0.313381,0.785697 -0.783455,0.785697 z"
   id="path81"
   style="stroke-width:0.196144" />
  <path
   d="M 80.44088,81.269862 H 68.767382 c -0.470073,0 -0.783456,-0.314279 -0.783456,-0.785698 V 60.841715 c 0,-5.264177 -0.783456,-10.056936 -6.345995,-10.056936 -4.857428,0 -6.894413,2.828513 -6.894413,9.742655 v 20.035299 c 0,0.47142 -0.313384,0.785699 -0.783457,0.785699 H 42.36491 c -0.470073,0 -0.783456,-0.314279 -0.783456,-0.785699 V 39.942148 c 0,-0.471418 0.313383,-0.785698 0.783456,-0.785698 h 10.890041 c 0.470074,0 0.783456,0.31428 0.783456,0.785698 v 3.378502 c 2.350369,-2.592804 6.345995,-4.085631 11.360114,-4.085631 0.470074,0 0.783457,0.31428 0.783457,0.785698 0,0.47142 -0.313383,0.785699 -0.783457,0.785699 -5.405848,0 -9.47982,1.807105 -11.203423,4.949898 -0.156691,0.235709 -0.391727,0.392848 -0.705111,0.392848 h -0.235036 c -0.470074,0 -0.783457,-0.31428 -0.783457,-0.785697 v -4.635619 h -9.323129 v 38.97062 h 10.106586 v -19.2496 c 0,-4.871328 0.861801,-11.314052 8.461327,-11.314052 7.912906,0 7.912906,8.485539 7.912906,11.628331 V 79.619897 H 79.735769 V 58.64176 c 0,-0.471419 0.313383,-0.785698 0.783457,-0.785698 0.470074,0 0.783455,0.314279 0.783455,0.785698 v 21.842404 c -0.07834,0.392849 -0.470074,0.785698 -0.861801,0.785698 z m -46.615642,0 H 19.801373 c -0.470073,0 -0.783457,-0.314279 -0.783457,-0.785698 V 39.942148 c 0,-0.471418 0.313384,-0.785698 0.783457,-0.785698 h 14.023865 c 0.470073,0 0.783457,0.31428 0.783457,0.785698 v 40.542016 c 0,0.392849 -0.39173,0.785698 -0.783457,0.785698 z M 20.584828,79.698466 H 33.041782 V 40.727846 H 20.584828 Z m 6.110959,-45.177634 c -4.387355,0 -7.912907,-3.535641 -7.912907,-7.93555 0,-4.399909 3.525552,-7.93555 7.912907,-7.93555 0.470073,0 0.783456,0.314279 0.783456,0.785699 0,0.471419 -0.313383,0.785698 -0.783456,0.785698 -3.525553,0 -6.345995,2.828513 -6.345995,6.364153 0,3.53564 2.820442,6.364153 6.345995,6.364153 3.525553,0 6.345995,-2.828513 6.345995,-6.364153 0,-0.471418 0.313382,-0.785698 0.783456,-0.785698 0.470073,0 0.783457,0.31428 0.783457,0.785698 0,4.399909 -3.525554,7.93555 -7.912908,7.93555 z"
   id="path83"
   style="stroke-width:0.196144" />
  <g
   id="g85"
   transform="matrix(0.19586403,0,0,0.1964245,0.37165908,0.18582955)">
</g>
  <g
   id="g87"
   transform="matrix(0.19586403,0,0,0.1964245,0.37165908,0.18582955)">
</g>
  <g
   id="g89"
   transform="matrix(0.19586403,0,0,0.1964245,0.37165908,0.18582955)">
</g>
  <g
   id="g91"
   transform="matrix(0.19586403,0,0,0.1964245,0.37165908,0.18582955)">
</g>
  <g
   id="g93"
   transform="matrix(0.19586403,0,0,0.1964245,0.37165908,0.18582955)">
</g>
  <g
   id="g95"
   transform="matrix(0.19586403,0,0,0.1964245,0.37165908,0.18582955)">
</g>
  <g
   id="g97"
   transform="matrix(0.19586403,0,0,0.1964245,0.37165908,0.18582955)">
</g>
  <g
   id="g99"
   transform="matrix(0.19586403,0,0,0.1964245,0.37165908,0.18582955)">
</g>
  <g
   id="g101"
   transform="matrix(0.19586403,0,0,0.1964245,0.37165908,0.18582955)">
</g>
  <g
   id="g103"
   transform="matrix(0.19586403,0,0,0.1964245,0.37165908,0.18582955)">
</g>
  <g
   id="g105"
   transform="matrix(0.19586403,0,0,0.1964245,0.37165908,0.18582955)">
</g>
  <g
   id="g107"
   transform="matrix(0.19586403,0,0,0.1964245,0.37165908,0.18582955)">
</g>
  <g
   id="g109"
   transform="matrix(0.19586403,0,0,0.1964245,0.37165908,0.18582955)">
</g>
  <g
   id="g111"
   transform="matrix(0.19586403,0,0,0.1964245,0.37165908,0.18582955)">
</g>
  <g
   id="g113"
   transform="matrix(0.19586403,0,0,0.1964245,0.37165908,0.18582955)">
</g>
</svg>
